<svg width="205" height="68" viewBox="0 0 205 68" fill="none" xmlns="http://www.w3.org/2000/svg">
<path d="M38.5546 54.7769C41.5965 54.7769 44.0624 57.2429 44.0624 60.2847V61.2027C44.0624 64.2446 41.5965 66.7105 38.5546 66.7105H5.5078C2.46593 66.7105 0 64.2446 0 61.2027V60.2847C0 57.2429 2.46593 54.7769 5.5078 54.7769H38.5546Z" fill="#141414"/>
<path d="M38.5546 8.87857C41.5965 8.87857 44.0624 11.3445 44.0624 14.3864V15.3043C44.0624 18.3462 41.5965 20.8121 38.5546 20.8121H5.5078C2.46593 20.8121 0 18.3462 0 15.3043V14.3864C0 11.3445 2.46593 8.87857 5.5078 8.87857H38.5546Z" fill="#141414"/>
<path d="M34.8828 31.8277C37.9246 31.8277 40.3906 34.2937 40.3906 37.3356V38.2535C40.3906 41.2954 37.9246 43.7613 34.8828 43.7613H5.5078C2.46593 43.7613 0 41.2954 0 38.2535V37.3356C0 34.2937 2.46593 31.8277 5.5078 31.8277H34.8828Z" fill="#005DB5"/>
<path d="M177.514 67.768C174.048 67.768 171.052 67.2099 168.526 66.0936C165.999 64.9774 164.061 63.3911 162.709 61.3349C161.358 59.2199 160.683 56.723 160.683 53.8443C160.683 51.1418 161.299 48.7624 162.533 46.7062C163.767 44.5912 165.647 42.8287 168.173 41.4187C170.758 40.0087 173.96 39.0099 177.779 38.4224L192.496 36.043V45.7368L180.158 47.9399C178.278 48.2924 176.839 48.9093 175.84 49.7905C174.841 50.613 174.342 51.8174 174.342 53.4036C174.342 54.8724 174.9 56.018 176.016 56.8405C177.133 57.663 178.513 58.0743 180.158 58.0743C182.332 58.0743 184.241 57.6043 185.886 56.6643C187.531 55.7243 188.794 54.4611 189.676 52.8749C190.616 51.2299 191.086 49.438 191.086 47.4993V34.9856C191.086 33.1643 190.351 31.6368 188.883 30.4031C187.473 29.1693 185.534 28.5524 183.066 28.5524C180.716 28.5524 178.631 29.1987 176.809 30.4912C176.208 30.9322 175.661 31.4212 175.169 31.958C173.6 33.6708 171.145 34.7538 169.047 33.7569L165.597 32.1184C163.753 31.2426 162.819 29.0842 163.864 27.3307C164.676 25.9673 165.672 24.7295 166.851 23.6174C168.908 21.6787 171.375 20.1806 174.254 19.1231C177.133 18.0656 180.276 17.5368 183.683 17.5368C187.737 17.5368 191.321 18.2712 194.434 19.74C197.548 21.2087 199.957 23.2649 201.661 25.9087C203.423 28.4937 204.304 31.5193 204.304 34.9856V62.7105C204.304 64.9196 202.514 66.7105 200.304 66.7105H195.967C193.758 66.7105 191.967 64.9196 191.967 62.7105V58.9555L194.963 58.4268C193.553 60.5418 191.996 62.3043 190.293 63.7142C188.589 65.0655 186.679 66.0642 184.564 66.7105C182.449 67.4155 180.099 67.768 177.514 67.768Z" fill="black"/>
<path d="M82.3554 66.7105C80.1462 66.7105 78.3554 64.9196 78.3554 62.7105V22.5943C78.3554 20.3852 80.1462 18.5943 82.3554 18.5943H86.6929C88.902 18.5943 90.6929 20.3852 90.6929 22.5943V30.3149L89.371 28.3762C90.076 24.6749 91.7797 21.9431 94.4822 20.1806C97.1847 18.4181 100.416 17.5368 104.176 17.5368C108.171 17.5368 111.667 18.565 114.663 20.6212C117.718 22.6187 119.627 25.3212 120.391 28.7287L116.602 29.0812C118.188 25.1449 120.45 22.2368 123.387 20.3568C126.325 18.4768 129.762 17.5368 133.698 17.5368C137.164 17.5368 140.219 18.3006 142.863 19.8281C145.565 21.3556 147.68 23.5 149.208 26.2612C150.735 28.9637 151.499 32.1362 151.499 35.7787V62.7105C151.499 64.9196 149.708 66.7105 147.499 66.7105H142.28C140.071 66.7105 138.28 64.9196 138.28 62.7105V38.5987C138.28 36.7187 137.928 35.1031 137.223 33.7518C136.577 32.4006 135.637 31.3431 134.403 30.5793C133.169 29.8156 131.671 29.4337 129.908 29.4337C128.205 29.4337 126.707 29.8156 125.414 30.5793C124.18 31.3431 123.211 32.4006 122.506 33.7518C121.86 35.1031 121.537 36.7187 121.537 38.5987V62.7105C121.537 64.9196 119.746 66.7105 117.537 66.7105H112.318C110.109 66.7105 108.318 64.9196 108.318 62.7105V38.5987C108.318 36.7187 107.965 35.1031 107.26 33.7518C106.614 32.4006 105.674 31.3431 104.44 30.5793C103.207 29.8156 101.708 29.4337 99.946 29.4337C98.2422 29.4337 96.7441 29.8156 95.4516 30.5793C94.2178 31.3431 93.2485 32.4006 92.5435 33.7518C91.8972 35.1031 91.5741 36.7187 91.5741 38.5987V62.7105C91.5741 64.9196 89.7832 66.7105 87.5741 66.7105H82.3554Z" fill="black"/>
<path d="M57.0401 66.7105C54.831 66.7105 53.0401 64.9197 53.0401 62.7105V4C53.0401 1.79086 54.831 0 57.0401 0H62.2589C64.468 0 66.2589 1.79086 66.2589 4V62.7105C66.2589 64.9196 64.468 66.7105 62.2589 66.7105H57.0401Z" fill="black"/>
</svg>
