<svg width="266" height="260" viewBox="0 0 266 260" fill="none" xmlns="http://www.w3.org/2000/svg">
<mask id="mask0_14_17" style="mask-type:luminance" maskUnits="userSpaceOnUse" x="0" y="0" width="266" height="260">
<path d="M266 0H0V260H266V0Z" fill="white"/>
</mask>
<g mask="url(#mask0_14_17)">
<path d="M168.868 58.4731H97.192C95.559 58.4751 93.993 59.126 92.838 60.282C91.683 61.439 91.0331 63.007 91.0311 64.642V224.157L90.2101 224.408L72.627 229.8C71.793 230.054 70.893 229.967 70.124 229.558C69.355 229.148 68.779 228.45 68.524 227.616L16.222 56.5442C15.9675 55.7098 16.0542 54.8083 16.4632 54.0379C16.8721 53.2674 17.5698 52.6911 18.403 52.4356L45.4985 44.1277L124.05 20.0514L151.145 11.7436C151.557 11.6165 151.991 11.5721 152.42 11.6129C152.85 11.6537 153.267 11.7789 153.648 11.9814C154.029 12.1839 154.367 12.4596 154.641 12.7928C154.916 13.1261 155.122 13.5102 155.248 13.9234L168.617 57.6506L168.868 58.4731Z" fill="#FAFAFA"/>
<path d="M184.508 57.6508L168.396 4.9495C168.127 4.0714 167.689 3.2548 167.106 2.5464C166.523 1.8379 165.805 1.2515 164.996 0.8207C164.186 0.3899 163.299 0.122998 162.387 0.0354983C161.474 -0.0521017 160.553 0.0412977 159.676 0.310298L121.581 11.9865L43.0344 36.0669L4.93972 47.7472C3.17012 48.2914 1.68832 49.5164 0.819721 51.1534C-0.0489787 52.7904 -0.233478 54.7056 0.306622 56.4787L55.3766 236.59C55.8153 238.021 56.7007 239.274 57.9026 240.165C59.1046 241.055 60.5599 241.536 62.055 241.538C62.747 241.538 63.435 241.434 64.096 241.229L90.21 233.226L91.032 232.971V232.111L90.21 232.362L63.854 240.444C62.292 240.921 60.6048 240.758 59.1626 239.991C57.7204 239.223 56.641 237.915 56.1611 236.352L1.09542 56.236C0.857625 55.4616 0.774824 54.6477 0.851524 53.8411C0.928324 53.0346 1.16322 52.251 1.54282 51.5355C1.92242 50.8199 2.43922 50.1864 3.06372 49.6712C3.68822 49.1559 4.40802 48.7691 5.18202 48.5328L43.2767 36.8524L121.824 12.7762L159.918 1.0958C160.505 0.916397 161.116 0.825001 161.73 0.824401C163.047 0.827301 164.328 1.2526 165.387 2.0378C166.445 2.8231 167.225 3.927 167.611 5.1881L183.65 57.6508L183.905 58.4734H184.759L184.508 57.6508Z" fill="#141414" fill-opacity="0.07"/>
<path d="M50.388 52.57C49.5964 52.5695 48.8258 52.3149 48.1892 51.8436C47.5527 51.3724 47.0837 50.7092 46.8511 49.9515L41.5608 32.6483C41.4187 32.1835 41.3693 31.6952 41.4157 31.2113C41.462 30.7274 41.603 30.2574 41.8308 29.8281C42.0585 29.3989 42.3685 29.0187 42.743 28.7094C43.1175 28.4001 43.5492 28.1677 44.0134 28.0254L116.276 5.8724C117.213 5.5859 118.226 5.6836 119.091 6.144C119.957 6.6044 120.605 7.3899 120.893 8.328L126.183 25.6314C126.469 26.5701 126.371 27.5841 125.911 28.4507C125.452 29.3174 124.667 29.9661 123.731 30.2545L51.468 52.4076C51.118 52.5151 50.754 52.5699 50.388 52.57Z" fill="#005DB5"/>
<path d="M78.101 18.4889C82.637 18.4889 86.315 14.8062 86.315 10.2633C86.315 5.7205 82.637 2.0378 78.101 2.0378C73.564 2.0378 69.886 5.7205 69.886 10.2633C69.886 14.8062 73.564 18.4889 78.101 18.4889Z" fill="#005DB5"/>
<path d="M78.101 15.472C80.974 15.472 83.302 13.14 83.302 10.2633C83.302 7.3867 80.974 5.0546 78.101 5.0546C75.228 5.0546 72.899 7.3867 72.899 10.2633C72.899 13.14 75.228 15.472 78.101 15.472Z" fill="white"/>
<path d="M247.504 248H108.496C107.568 247.999 106.68 247.612 106.024 246.925C105.369 246.238 105.001 245.306 105 244.334V69.666C105.001 68.6939 105.369 67.7627 106.024 67.0748C106.68 66.388 107.568 66.001 108.496 66H247.504C248.431 66.001 249.319 66.388 249.975 67.0748C250.629 67.7627 250.999 68.6939 251 69.666V244.334C250.999 245.306 250.629 246.238 249.975 246.925C249.319 247.612 248.431 247.999 247.504 248Z" fill="#FAFAFA"/>
<path d="M183.65 57.6506H97.192C95.341 57.6532 93.567 58.3907 92.258 59.701C90.949 61.012 90.213 62.789 90.21 64.642V232.362L91.031 232.111V64.642C91.033 63.007 91.683 61.439 92.838 60.282C93.993 59.126 95.559 58.4751 97.192 58.4731H183.904L183.65 57.6506ZM259.018 57.6506H97.192C95.341 57.6532 93.567 58.3907 92.258 59.701C90.949 61.012 90.213 62.789 90.21 64.642V253.008C90.213 254.862 90.949 256.639 92.258 257.949C93.567 259.26 95.341 259.997 97.192 260H259.018C260.869 259.997 262.643 259.26 263.952 257.949C265.261 256.639 265.997 254.862 266 253.008V64.642C265.997 62.789 265.261 61.012 263.952 59.701C262.643 58.3907 260.869 57.6532 259.018 57.6506ZM265.179 253.008C265.177 254.644 264.527 256.212 263.372 257.368C262.217 258.525 260.651 259.175 259.018 259.177H97.192C95.559 259.175 93.993 258.525 92.838 257.368C91.683 256.212 91.033 254.644 91.031 253.008V64.642C91.033 63.007 91.683 61.439 92.838 60.282C93.993 59.126 95.559 58.4751 97.192 58.4731H259.018C260.651 58.4751 262.217 59.126 263.372 60.282C264.527 61.439 265.177 63.007 265.179 64.642V253.008Z" fill="#141414" fill-opacity="0.07"/>
<path d="M215.892 75.747H140.318C139.338 75.746 138.399 75.355 137.706 74.662C137.013 73.968 136.623 73.027 136.622 72.045V53.9491C136.623 52.9677 137.013 52.0269 137.706 51.3329C138.399 50.639 139.338 50.2487 140.318 50.2476H215.892C216.872 50.2487 217.811 50.639 218.504 51.3329C219.197 52.0269 219.587 52.9677 219.588 53.9491V72.045C219.587 73.027 219.197 73.968 218.504 74.662C217.811 75.355 216.872 75.746 215.892 75.747Z" fill="#005DB5"/>
<path d="M178.105 51.4814C182.642 51.4814 186.319 47.7987 186.319 43.2558C186.319 38.7129 182.642 35.0302 178.105 35.0302C173.568 35.0302 169.891 38.7129 169.891 43.2558C169.891 47.7987 173.568 51.4814 178.105 51.4814Z" fill="#005DB5"/>
<path d="M178.105 48.266C180.868 48.266 183.108 46.0229 183.108 43.2558C183.108 40.4888 180.868 38.2457 178.105 38.2457C175.342 38.2457 173.102 40.4888 173.102 43.2558C173.102 46.0229 175.342 48.266 178.105 48.266Z" fill="white"/>
</g>
</svg>
